<?xml version="1.0" encoding="utf-8"?>
<!-- Generator: Adobe Illustrator 16.0.4, SVG Export Plug-In . SVG Version: 6.00 Build 0)  -->
<!DOCTYPE svg PUBLIC "-//W3C//DTD SVG 1.1//EN" "http://www.w3.org/Graphics/SVG/1.1/DTD/svg11.dtd">
<svg version="1.1" id="レイヤー_1" xmlns="http://www.w3.org/2000/svg" xmlns:xlink="http://www.w3.org/1999/xlink" x="0px"
         y="0px" width="595.28px" height="841.89px" viewBox="0 0 595.28 841.89" enable-background="new 0 0 595.28 841.89"
         xml:space="preserve">
<g>
        <g>
                <path fill="#666666" d="M167.897,445.354h-7.272v-50.836h30.026v7.057h-22.754v14.905h20.162v6.768h-20.162V445.354z"/>
                <path fill="#666666" d="M208.29,419.792h8.496c6.121,0,9.146-4.393,9.146-8.785c0-4.32-3.024-9.361-9.146-9.361h-11.16v43.708
                        h-7.201v-51.052h18.361c10.945,0,16.418,8.712,16.418,16.705c0,7.129-4.393,13.897-13.033,15.41l15.913,18.938h-9.433
                        l-18.361-22.106V419.792z"/>
                <path fill="#666666" d="M263.802,393.942c14.546,0,26.211,11.665,26.211,26.21c0,14.545-11.665,26.139-26.211,26.139
                        c-14.545,0-26.138-11.594-26.138-26.139C237.664,405.607,249.257,393.942,263.802,393.942z M263.802,438.802
                        c10.369,0,18.722-8.28,18.722-18.649s-8.353-18.722-18.722-18.722c-10.368,0-18.649,8.353-18.649,18.722
                        S253.434,438.802,263.802,438.802z"/>
                <path fill="#666666" d="M295.623,445.354V394.95h5.616l24.555,35.499V394.95h7.2v50.404h-5.76l-24.339-35.211v35.211H295.623z"/>
                <path fill="#666666" d="M354.159,445.354v-43.996h-15.266v-6.913h37.731v6.913h-15.193v43.996H354.159z"/>
                <path fill="#666666" d="M392.463,419.792h8.496c6.121,0,9.146-4.393,9.146-8.785c0-4.32-3.024-9.361-9.146-9.361h-11.16v43.708
                        h-7.201v-51.052h18.361c10.945,0,16.418,8.712,16.418,16.705c0,7.129-4.393,13.897-13.033,15.41l15.913,18.938h-9.433
                        l-18.361-22.106V419.792z"/>
                <path fill="#666666" d="M432.493,438.082h23.402v7.272h-30.747v-50.908h30.675v7.272h-23.33v14.185h22.826v7.344h-22.826V438.082z
                        "/>
                <path fill="#666666" d="M465.324,445.354V394.95h5.616l24.555,35.499V394.95h7.2v50.404h-5.76l-24.339-35.211v35.211H465.324z"/>
                <path fill="#666666" d="M531.35,394.518c16.49,0,24.771,13.105,24.771,25.706s-8.28,25.13-24.771,25.13h-18.073v-50.836H531.35z
                         M531.35,438.082c11.665,0,17.57-8.929,17.57-17.858c0-8.929-5.905-18.434-17.57-18.434h-10.801v36.292H531.35z"/>
        </g>
        <g>
                <g>
                        <path fill="#44AF35" d="M87.086,381.217c-13.17,0.614-25.706,5.086-39.192,2.958c-0.428-0.05-0.862-0.105-1.297-0.166
                                c-0.436-0.061-0.871-0.126-1.307-0.197c-3.765-0.641-6.609,1.629-6.042,5.65c2.151,14.331,6.906,28.409,13.951,41.271
                                c0.227,0.415,0.457,0.829,0.688,1.241c2.854,4.754,5.701,9.684,9.057,14.13c0.261,0.345,0.525,0.688,0.8,1.034
                                c3.816,4.585,11.231,14.052,17.186,6.858c0.306-0.295,0.586-0.612,0.837-0.946c2.256-3.008,2.044-7.467-1.201-10.363
                                c-0.315-0.371-0.637-0.737-0.958-1.099c-0.965-1.083-1.925-2.118-2.696-3.11c-0.343-0.326-0.669-0.656-0.969-0.988
                                c-2.1-2.332-2.959-4.834-0.368-7.938c0.308-0.26,0.648-0.508,1.019-0.744c0.74-0.471,1.6-0.889,2.562-1.234
                                c7.261-2.658,14.099-6.191,20.376-10.428c4.201-2.873,5.316-6.845,2.969-8.598c-2.361-1.762-7.254-1.153-11.318,1.125
                                c-6.101,3.485-12.686,6.278-19.619,8.207c-0.289,0.081-0.575,0.159-0.861,0.233c-7.268,2.585-11.652-3.371-14.098-9.849
                                c-0.174-0.462-0.339-0.928-0.494-1.393c-1.97-5.979,0.675-8.895,4.787-10.579c0.411-0.168,0.835-0.325,1.267-0.469
                                c9.598-1.919,19.166-4.525,26.902-9.939c0.365-0.233,0.735-0.47,1.104-0.711c0.371-0.24,0.738-0.483,1.094-0.726
                                c1.053-0.725,0.586-1.523-0.414-2.153c-0.332-0.21-0.725-0.401-1.139-0.564c-0.416-0.164-0.861-0.295-1.312-0.382
                                C87.948,381.26,87.494,381.215,87.086,381.217z"/>
                </g>
                <g>
                        <path fill="#6D6D6D" d="M91.922,387.025c-3.398,3.274-7.607,5.078-11.722,7.188c-0.557,0.26-1.118,0.514-1.684,0.761
                                c-3.665,1.499-2.743,2.746,2.214,2.402c0.054,0.134,0.908,0.096,2.322-0.035c12.686-0.428,27.116-4.637,37.902,2.994
                                c1.037,0.607,1.801,1.459,2.342,2.491c1.082,2.062,1.281,4.842,0.975,7.815c-0.067,0.642-0.157,1.29-0.267,1.942
                                c-1.812,14.994-12.634,26.417-25.049,33.582c-0.737,0.454-1.501,0.913-2.278,1.37c-3.891,2.287-8.098,4.535-11.103,5.92
                                c-4.756,2.257-6.776,4.839-4.147,6.045c2.615,1.202,9.024,1.074,13.996-0.64c1.254-0.394,2.705-0.966,4.253-1.663
                                c0.774-0.35,1.571-0.73,2.375-1.134c20.142-9.848,31.565-30.892,32.313-52.659c-0.023-1.049-0.088-2.078-0.191-3.076
                                c-0.123-1.165-0.301-2.289-0.537-3.36c-0.252-1.073-0.562-2.092-0.957-3.048c-7.48-12.64-26.119-9.633-38.627-8.067
                                C93.186,386.146,92.439,386.531,91.922,387.025z"/>
                </g>
        </g>
</g>
</svg>
