<?xml version="1.0" encoding="utf-8"?>
<!-- Generator: Adobe Illustrator 16.0.4, SVG Export Plug-In . SVG Version: 6.00 Build 0)  -->
<!DOCTYPE svg PUBLIC "-//W3C//DTD SVG 1.1//EN" "http://www.w3.org/Graphics/SVG/1.1/DTD/svg11.dtd">
<svg version="1.1" id="レイヤー_1" xmlns="http://www.w3.org/2000/svg" xmlns:xlink="http://www.w3.org/1999/xlink" x="0px"
         y="0px" width="595.28px" height="841.89px" viewBox="0 0 595.28 841.89" enable-background="new 0 0 595.28 841.89"
         xml:space="preserve">
<g>
        <g>
                <g>
                        <path fill="#44AF35" d="M294.755,327.577c-21.905,1.021-42.755,8.459-65.185,4.92c-0.712-0.083-1.434-0.174-2.158-0.274
                                c-0.724-0.101-1.448-0.21-2.174-0.328c-6.262-1.066-10.991,2.709-10.049,9.396c3.578,23.835,11.486,47.25,23.202,68.643
                                c0.378,0.69,0.76,1.378,1.146,2.064c4.748,7.907,9.481,16.104,15.063,23.501c0.434,0.573,0.873,1.143,1.331,1.72
                                c6.347,7.626,18.679,23.371,28.584,11.407c0.508-0.491,0.975-1.018,1.392-1.574c3.752-5.004,3.398-12.418-1.998-17.237
                                c-0.523-0.617-1.059-1.226-1.594-1.826c-1.605-1.801-3.202-3.523-4.483-5.172c-0.571-0.544-1.113-1.093-1.612-1.646
                                c-3.492-3.876-4.923-8.038-0.612-13.199c0.513-0.433,1.077-0.847,1.693-1.238c1.23-0.784,2.661-1.479,4.263-2.053
                                c12.077-4.421,23.448-10.298,33.89-17.344c6.987-4.779,8.843-11.385,4.938-14.301c-3.928-2.931-12.066-1.918-18.826,1.871
                                c-10.146,5.796-21.098,10.442-32.629,13.649c-0.48,0.134-0.957,0.265-1.432,0.388c-12.089,4.3-19.38-5.606-23.447-16.381
                                c-0.29-0.77-0.563-1.543-0.821-2.316c-3.276-9.944,1.123-14.795,7.962-17.596c0.684-0.28,1.39-0.54,2.106-0.78
                                c15.964-3.192,31.877-7.526,44.744-16.532c0.607-0.387,1.223-0.781,1.836-1.182c0.615-0.399,1.227-0.804,1.817-1.207
                                c1.752-1.205,0.975-2.533-0.688-3.581c-0.553-0.35-1.206-0.667-1.896-0.938c-0.691-0.271-1.431-0.49-2.181-0.635
                                C296.188,327.649,295.433,327.575,294.755,327.577z"/>
                </g>
                <g>
                        <path fill="#6D6D6D" d="M302.798,337.238c-5.652,5.445-12.652,8.445-19.496,11.954c-0.927,0.433-1.859,0.854-2.8,1.266
                                c-6.095,2.492-4.562,4.567,3.683,3.995c0.087,0.224,1.51,0.159,3.862-0.058c21.099-0.712,45.099-7.712,63.04,4.979
                                c1.725,1.011,2.994,2.428,3.895,4.143c1.8,3.43,2.13,8.053,1.619,12.999c-0.111,1.067-0.261,2.145-0.442,3.229
                                c-3.013,24.938-21.013,43.938-41.661,55.854c-1.226,0.754-2.498,1.518-3.791,2.278c-6.469,3.804-13.466,7.544-18.465,9.847
                                c-7.911,3.753-11.27,8.048-6.898,10.053c4.351,2,15.01,1.787,23.278-1.063c2.085-0.654,4.501-1.606,7.074-2.767
                                c1.287-0.58,2.613-1.213,3.95-1.885c33.5-16.379,52.5-51.379,53.743-87.583c-0.039-1.745-0.145-3.456-0.318-5.116
                                c-0.203-1.938-0.499-3.808-0.892-5.588c-0.421-1.785-0.937-3.479-1.594-5.069c-12.439-21.022-43.439-16.022-64.242-13.417
                                C304.898,335.776,303.659,336.415,302.798,337.238z"/>
                </g>
        </g>
        <g>
                <path fill="#666666" d="M202.747,512.746h-3.636v-25.413h15.01v3.527h-11.374v7.451h10.078v3.384h-10.078V512.746z"/>
                <path fill="#666666" d="M222.942,499.967h4.247c3.06,0,4.571-2.195,4.571-4.391c0-2.16-1.512-4.68-4.571-4.68h-5.579v21.85h-3.6
                        v-25.521h9.179c5.472,0,8.207,4.355,8.207,8.352c0,3.562-2.195,6.947-6.516,7.703l7.955,9.467h-4.715l-9.179-11.051V499.967z"/>
                <path fill="#666666" d="M250.697,487.045c7.271,0,13.103,5.831,13.103,13.102c0,7.271-5.831,13.066-13.103,13.066
                        s-13.066-5.795-13.066-13.066C237.631,492.876,243.426,487.045,250.697,487.045z M250.697,509.471
                        c5.184,0,9.358-4.141,9.358-9.324c0-5.183-4.175-9.357-9.358-9.357s-9.323,4.175-9.323,9.357
                        C241.374,505.33,245.514,509.471,250.697,509.471z"/>
                <path fill="#666666" d="M266.61,512.746v-25.197h2.808l12.274,17.746v-17.746h3.6v25.197h-2.88l-12.166-17.602v17.602H266.61z"/>
                <path fill="#666666" d="M295.877,512.746v-21.994h-7.631v-3.455h18.861v3.455h-7.595v21.994H295.877z"/>
                <path fill="#666666" d="M315.03,499.967h4.247c3.06,0,4.571-2.195,4.571-4.391c0-2.16-1.512-4.68-4.571-4.68h-5.579v21.85h-3.6
                        v-25.521h9.179c5.472,0,8.207,4.355,8.207,8.352c0,3.562-2.195,6.947-6.516,7.703l7.955,9.467h-4.715l-9.179-11.051V499.967z"/>
                <path fill="#666666" d="M335.046,509.109h11.698v3.637h-15.37v-25.449h15.334v3.635h-11.662v7.092h11.41v3.672h-11.41V509.109z"/>
                <path fill="#666666" d="M351.462,512.746v-25.197h2.808l12.274,17.746v-17.746h3.6v25.197h-2.88l-12.166-17.602v17.602H351.462z"
                        />
                <path fill="#666666" d="M384.474,487.333c8.242,0,12.382,6.551,12.382,12.851c0,6.299-4.14,12.562-12.382,12.562h-9.035v-25.413
                        H384.474z M384.474,509.109c5.831,0,8.782-4.463,8.782-8.926c0-4.464-2.951-9.215-8.782-9.215h-5.399v18.141H384.474z"/>
        </g>
</g>
</svg>
